<svg xmlns="http://www.w3.org/2000/svg" viewBox="0 0 512 512">
  <defs>
    <linearGradient id="bg" x1="0%" y1="0%" x2="100%" y2="100%">
      <stop offset="0%" style="stop-color:#43A047"/>
      <stop offset="100%" style="stop-color:#2E7D32"/>
    </linearGradient>
  </defs>
  <rect width="512" height="512" rx="96" fill="url(#bg)"/>
  <path d="M256 120c-60 0-100 40-100 100 0 35 20 65 50 80v92c0 11 9 20 20 20h60c11 0 20-9 20-20v-92c30-15 50-45 50-80 0-60-40-100-100-100z" fill="#fff" opacity="0.95"/>
  <path d="M256 140c-15 0-28 5-38 14-8 7-13 17-13 28 0 8 3 15 8 21 6 7 14 11 23 12l20 2 20-2c9-1 17-5 23-12 5-6 8-13 8-21 0-11-5-21-13-28-10-9-23-14-38-14z" fill="#43A047"/>
  <circle cx="256" cy="310" r="8" fill="#43A047"/>
</svg>
